<svg width="29" height="24" viewBox="0 0 29 24" fill="none" xmlns="http://www.w3.org/2000/svg">
<path d="M26.001 2.22812C24.5199 0.79865 22.559 0.017362 20.4662 0.017362C18.3734 0.017362 16.4065 0.804437 14.9254 2.2339L14.1518 2.98047L13.3663 2.22233C11.8852 0.792862 9.9123 0 7.81951 0C5.73272 0 3.76585 0.787075 2.29071 2.21075C0.809564 3.64022 -0.0059637 5.53846 3.28353e-05 7.55824C3.28353e-05 9.57801 0.821558 11.4705 2.3027 12.8999L13.5642 23.7685C13.7201 23.919 13.93 24 14.1339 24C14.3377 24 14.5476 23.9248 14.7035 23.7743L25.989 12.9231C27.4701 11.4936 28.2857 9.59537 28.2857 7.5756C28.2917 5.55582 27.4821 3.65758 26.001 2.22812ZM24.8497 11.8177L14.1339 22.1191L3.44204 11.8003C2.26672 10.666 1.6191 9.16132 1.6191 7.55824C1.6191 5.95515 2.26073 4.45045 3.43605 3.32192C4.60537 2.19339 6.16447 1.56836 7.81951 1.56836C9.48055 1.56836 11.0456 2.19339 12.221 3.32771L13.5762 4.63564C13.894 4.94237 14.4037 4.94237 14.7215 4.63564L16.0647 3.33928C17.2401 2.20497 18.8052 1.57994 20.4602 1.57994C22.1152 1.57994 23.6743 2.20497 24.8497 3.33349C26.025 4.46781 26.6666 5.97251 26.6666 7.5756C26.6726 9.17868 26.025 10.6834 24.8497 11.8177Z" fill="#0082CA"/>
</svg>
