<svg width="45" height="45" viewBox="0 0 45 45" fill="none" xmlns="http://www.w3.org/2000/svg">
<circle cx="22.5" cy="22.5" r="22.5" fill="#F1F5F8"/>
<path d="M32.0221 14.7258C30.8816 13.6186 29.3716 13.0134 27.7601 13.0134C26.1485 13.0134 24.6339 13.6231 23.4934 14.7303L22.8977 15.3086L22.2928 14.7213C21.1522 13.6141 19.633 13 18.0214 13C16.4145 13 14.8999 13.6096 13.764 14.7124C12.6234 15.8196 11.9954 17.2899 12 18.8544C12 20.4188 12.6326 21.8846 13.7732 22.9919L22.4451 31.4103C22.5652 31.5268 22.7268 31.5896 22.8838 31.5896C23.0408 31.5896 23.2024 31.5313 23.3225 31.4148L32.0129 23.0098C33.1535 21.9026 33.7815 20.4323 33.7815 18.8678C33.7861 17.3034 33.1627 15.833 32.0221 14.7258ZM31.1356 22.1536L22.8838 30.1327L14.6506 22.1401C13.7455 21.2615 13.2468 20.0961 13.2468 18.8544C13.2468 17.6127 13.7409 16.4472 14.6459 15.573C15.5464 14.6989 16.747 14.2148 18.0214 14.2148C19.3005 14.2148 20.5057 14.6989 21.4108 15.5775L22.4544 16.5906C22.6991 16.8282 23.0916 16.8282 23.3364 16.5906L24.3707 15.5865C25.2758 14.7079 26.481 14.2238 27.7554 14.2238C29.0299 14.2238 30.2305 14.7079 31.1356 15.582C32.0406 16.4606 32.5347 17.6261 32.5347 18.8678C32.5393 20.1095 32.0406 21.275 31.1356 22.1536Z" fill="#0082CA"/>
</svg>
