<svg width="45" height="45" viewBox="0 0 45 45" fill="none" xmlns="http://www.w3.org/2000/svg">
<circle cx="22.5" cy="22.5" r="22.5" fill="#F1F5F8"/>
<path d="M30.6244 24.9231C30.3617 24.9231 30.1488 25.136 30.1488 25.3987V29.6213C30.1479 30.409 29.5098 31.0473 28.7221 31.048H15.3779C14.5902 31.0473 13.9521 30.409 13.9512 29.6213V17.2282C13.9521 16.4407 14.5902 15.8024 15.3779 15.8015H19.6005C19.8632 15.8015 20.0761 15.5886 20.0761 15.3259C20.0761 15.0634 19.8632 14.8503 19.6005 14.8503H15.3779C14.0652 14.8518 13.0015 15.9156 13 17.2282V29.6215C13.0015 30.9341 14.0652 31.9979 15.3779 31.9994H28.7221C30.0348 31.9979 31.0985 30.9341 31.1 29.6215V25.3987C31.1 25.136 30.8871 24.9231 30.6244 24.9231Z" fill="black"/>
<path d="M30.9116 13.6268C30.0758 12.7911 28.7208 12.7911 27.885 13.6268L19.4004 22.1114C19.3422 22.1696 19.3003 22.2417 19.2783 22.3208L18.1626 26.3489C18.1167 26.5141 18.1633 26.6909 18.2845 26.8122C18.4058 26.9333 18.5826 26.98 18.7478 26.9343L22.7759 25.8183C22.855 25.7964 22.9271 25.7544 22.9852 25.6963L31.4696 17.2115C32.3041 16.3752 32.3041 15.0212 31.4696 14.1849L30.9116 13.6268ZM20.4366 22.4206L27.3806 15.4764L29.6201 17.7159L22.6759 24.66L20.4366 22.4206ZM19.9893 23.3182L21.7785 25.1076L19.3036 25.7933L19.9893 23.3182ZM30.7971 16.539L30.2928 17.0434L28.0531 14.8037L28.5577 14.2993C29.0219 13.8351 29.7747 13.8351 30.2389 14.2993L30.7971 14.8574C31.2607 15.3222 31.2607 16.0744 30.7971 16.539Z" fill="black"/>
</svg>
