<svg width="28" height="30" viewBox="0 0 28 30" fill="none" xmlns="http://www.w3.org/2000/svg">
<path d="M22.75 19.4531C21.0212 19.4531 19.4851 20.297 18.528 21.596L10.2872 17.3658C10.4255 16.894 10.5 16.3951 10.5 15.8789C10.5 15.1798 10.3636 14.5123 10.1165 13.9012L18.7533 8.68881C19.717 9.82494 21.1511 10.5469 22.75 10.5469C25.6448 10.5469 28 8.18121 28 5.27344C28 2.36566 25.6448 0 22.75 0C19.8552 0 17.5 2.36566 17.5 5.27344C17.5 5.94551 17.6261 6.58846 17.8552 7.18008L9.19683 12.4055C8.23387 11.3029 6.82156 10.6055 5.25 10.6055C2.35515 10.6055 0 12.9711 0 15.8789C0 18.7867 2.35515 21.1523 5.25 21.1523C7.00712 21.1523 8.5652 20.2807 9.51866 18.9454L17.7355 23.1632C17.5825 23.6574 17.5 24.1825 17.5 24.7266C17.5 27.6343 19.8552 30 22.75 30C25.6448 30 28 27.6343 28 24.7266C28 21.8188 25.6448 19.4531 22.75 19.4531ZM22.75 1.75781C24.6799 1.75781 26.25 3.33492 26.25 5.27344C26.25 7.21195 24.6799 8.78906 22.75 8.78906C20.8201 8.78906 19.25 7.21195 19.25 5.27344C19.25 3.33492 20.8201 1.75781 22.75 1.75781ZM5.25 19.3945C3.3201 19.3945 1.75 17.8174 1.75 15.8789C1.75 13.9404 3.3201 12.3633 5.25 12.3633C7.1799 12.3633 8.75 13.9404 8.75 15.8789C8.75 17.8174 7.1799 19.3945 5.25 19.3945ZM22.75 28.2422C20.8201 28.2422 19.25 26.6651 19.25 24.7266C19.25 22.788 20.8201 21.2109 22.75 21.2109C24.6799 21.2109 26.25 22.788 26.25 24.7266C26.25 26.6651 24.6799 28.2422 22.75 28.2422Z" fill="black"/>
</svg>
