<svg width="45" height="45" viewBox="0 0 45 45" fill="none" xmlns="http://www.w3.org/2000/svg">
<circle cx="22.5" cy="22.5" r="22.5" fill="#F1F5F8"/>
<path d="M27.625 25.3203C26.5136 25.3203 25.5262 25.8548 24.9108 26.6774L19.6132 23.9983C19.7021 23.6995 19.75 23.3835 19.75 23.0566C19.75 22.6139 19.6623 22.1911 19.5035 21.8041L25.0557 18.5029C25.6752 19.2225 26.5971 19.6797 27.625 19.6797C29.486 19.6797 31 18.1814 31 16.3398C31 14.4983 29.486 13 27.625 13C25.764 13 24.25 14.4983 24.25 16.3398C24.25 16.7655 24.331 17.1727 24.4784 17.5474L18.9123 20.8568C18.2932 20.1585 17.3853 19.7168 16.375 19.7168C14.514 19.7168 13 21.2151 13 23.0566C13 24.8982 14.514 26.3965 16.375 26.3965C17.5046 26.3965 18.5062 25.8444 19.1191 24.9987L24.4014 27.67C24.303 27.983 24.25 28.3156 24.25 28.6602C24.25 30.5017 25.764 32 27.625 32C29.486 32 31 30.5017 31 28.6602C31 26.8186 29.486 25.3203 27.625 25.3203ZM27.625 14.1133C28.8657 14.1133 29.875 15.1121 29.875 16.3398C29.875 17.5676 28.8657 18.5664 27.625 18.5664C26.3843 18.5664 25.375 17.5676 25.375 16.3398C25.375 15.1121 26.3843 14.1133 27.625 14.1133ZM16.375 25.2832C15.1344 25.2832 14.125 24.2844 14.125 23.0566C14.125 21.8289 15.1344 20.8301 16.375 20.8301C17.6157 20.8301 18.625 21.8289 18.625 23.0566C18.625 24.2844 17.6157 25.2832 16.375 25.2832ZM27.625 30.8867C26.3843 30.8867 25.375 29.8879 25.375 28.6602C25.375 27.4324 26.3843 26.4336 27.625 26.4336C28.8657 26.4336 29.875 27.4324 29.875 28.6602C29.875 29.8879 28.8657 30.8867 27.625 30.8867Z" fill="black"/>
</svg>
