<svg width="22" height="17" viewBox="0 0 22 17" fill="none" xmlns="http://www.w3.org/2000/svg">
<path d="M20.0664 0H1.93359C0.868742 0 0 0.880338 0 1.96154V15.0385C0 16.116 0.864875 17 1.93359 17H20.0664C21.1286 17 22 16.1226 22 15.0385V1.96154C22 0.884 21.1351 0 20.0664 0ZM19.7994 1.30769L11.041 10.1927L2.20683 1.30769H19.7994ZM1.28906 14.7677V2.22608L7.49714 8.46988L1.28906 14.7677ZM2.20056 15.6923L8.41255 9.39054L10.5892 11.5797C10.8412 11.8331 11.2478 11.8323 11.4987 11.5777L13.6211 9.42467L19.7994 15.6923H2.20056ZM20.7109 14.7676L14.5326 8.5L20.7109 2.23232V14.7676Z" fill="black"/>
</svg>
