<svg width="24" height="23" viewBox="0 0 24 23" fill="none" xmlns="http://www.w3.org/2000/svg">
<path d="M22.9993 16.7225V19.8839C23.0006 20.1774 22.9375 20.4679 22.814 20.7368C22.6906 21.0057 22.5096 21.247 22.2826 21.4454C22.0556 21.6438 21.7876 21.7949 21.4958 21.8889C21.2039 21.9829 20.8947 22.0179 20.5879 21.9914C17.1841 21.6391 13.9145 20.5311 11.0418 18.7563C8.36914 17.1384 6.10319 14.9798 4.40487 12.4336C2.53545 9.68454 1.37207 6.55458 1.00898 3.29735C0.981336 3.00594 1.01769 2.71225 1.11572 2.43496C1.21376 2.15767 1.37132 1.90287 1.57839 1.68677C1.78546 1.47067 2.03749 1.29802 2.31843 1.1798C2.59938 1.06157 2.90309 1.00038 3.21023 1.0001H6.52869C7.06551 0.995069 7.58594 1.17617 7.99297 1.50964C8.4 1.84311 8.66586 2.30621 8.74099 2.81261C8.88106 3.82431 9.14081 4.81767 9.5153 5.77374C9.66413 6.15091 9.69634 6.56082 9.60812 6.9549C9.51989 7.34898 9.31494 7.71071 9.01753 7.99722L7.61272 9.33552C9.18739 11.9737 11.4803 14.1581 14.2496 15.6582L15.6545 14.3199C15.9552 14.0366 16.3349 13.8413 16.7486 13.7573C17.1622 13.6732 17.5925 13.7039 17.9884 13.8457C18.992 14.2025 20.0348 14.4499 21.0967 14.5834C21.6341 14.6556 22.1248 14.9134 22.4756 15.3078C22.8264 15.7022 23.0128 16.2057 22.9993 16.7225Z" stroke="black" stroke-width="2" stroke-linecap="round" stroke-linejoin="round"/>
</svg>
